<?xml version="1.0" standalone="no"?>
<!DOCTYPE svg PUBLIC "-//W3C//DTD SVG 20010904//EN"
 "http://www.w3.org/TR/2001/REC-SVG-20010904/DTD/svg10.dtd">
<svg version="1.0" xmlns="http://www.w3.org/2000/svg"
 width="200.000000pt" height="200.000000pt" viewBox="0 0 200.000000 200.000000"
 preserveAspectRatio="xMidYMid meet">
<metadata>
Created by potrace 1.16, written by Peter Selinger 2001-2019
</metadata>
<g transform="translate(0.000000,200.000000) scale(0.100000,-0.100000)"
fill="#000000" stroke="none">
<path d="M821 1230 c-66 -33 -121 -63 -121 -67 1 -34 20 -31 136 22 65 30 124
55 131 55 6 0 60 -27 119 -61 83 -47 109 -58 115 -47 5 7 7 17 6 22 -4 13
-227 136 -247 136 -10 0 -72 -27 -139 -60z"/>
<path d="M931 1191 c-13 -3 -33 -18 -44 -33 -24 -32 -17 -69 19 -103 19 -17
24 -30 19 -45 -21 -65 -105 -82 -149 -29 -14 17 -26 37 -26 44 0 32 26 66 62
82 42 19 53 53 17 53 -32 0 -94 -38 -112 -70 -45 -75 7 -171 105 -195 19 -5
42 1 78 19 l51 26 37 -25 c48 -33 107 -33 153 -2 61 41 77 113 39 175 -20 32
-74 72 -97 72 -26 0 -12 -42 27 -79 46 -43 51 -74 20 -114 -24 -30 -70 -43
-100 -27 -12 6 -28 27 -36 47 -14 33 -14 35 16 69 16 19 30 39 30 44 0 15 -40
12 -56 -5 -22 -22 -51 -18 -65 7 -10 18 -8 24 11 40 19 16 25 16 49 4 17 -9
32 -11 42 -6 12 8 11 12 -6 29 -25 23 -52 31 -84 22z"/>
</g>
</svg>
